<svg width="32" height="32" viewBox="0 0 32 32" fill="none" xmlns="http://www.w3.org/2000/svg">
  <!-- Background circle -->
  <circle cx="16" cy="16" r="16" fill="url(#gradient1)"/>
  
  <!-- Mind symbol - brain/head outline -->
  <path d="M16 6C12 6 9 9 9 13C9 15 10 16.5 11 17.5C10.5 18.5 10 19.5 10 21C10 23 11.5 24.5 13.5 24.5C14.5 24.5 15.5 24 16 23C16.5 24 17.5 24.5 18.5 24.5C20.5 24.5 22 23 22 21C22 19.5 21.5 18.5 21 17.5C22 16.5 23 15 23 13C23 9 20 6 16 6Z" fill="white" opacity="0.9"/>
  
  <!-- Inner mind lines -->
  <path d="M14 10C14 9.5 14.5 9 15 9C15.5 9 16 9.5 16 10C16 10.5 15.5 11 15 11C14.5 11 14 10.5 14 10Z" fill="white"/>
  <path d="M16 10C16 9.5 16.5 9 17 9C17.5 9 18 9.5 18 10C18 10.5 17.5 11 17 11C16.5 11 16 10.5 16 10Z" fill="white"/>
  
  <!-- Thought bubbles -->
  <circle cx="12" cy="12" r="1.5" fill="white" opacity="0.7"/>
  <circle cx="20" cy="12" r="1.5" fill="white" opacity="0.7"/>
  <circle cx="11" cy="14" r="1" fill="white" opacity="0.5"/>
  <circle cx="21" cy="14" r="1" fill="white" opacity="0.5"/>
  
  <!-- Gradient definition -->
  <defs>
    <linearGradient id="gradient1" x1="0%" y1="0%" x2="100%" y2="100%">
      <stop offset="0%" style="stop-color:#74b9ff;stop-opacity:1" />
      <stop offset="100%" style="stop-color:#0984e3;stop-opacity:1" />
    </linearGradient>
  </defs>
</svg>
